<?xml version="1.0" standalone="no"?>
<!DOCTYPE svg PUBLIC "-//W3C//DTD SVG 20010904//EN"
 "http://www.w3.org/TR/2001/REC-SVG-20010904/DTD/svg10.dtd">
<svg version="1.0" xmlns="http://www.w3.org/2000/svg"
 width="1061.000000pt" height="290.000000pt" viewBox="0 0 1061.000000 290.000000"
 preserveAspectRatio="xMidYMid meet">

<g transform="translate(0.000000,290.000000) scale(0.100000,-0.100000)"
fill="#e50914" stroke="none">
<path d="M500 2875 c-179 -40 -340 -165 -419 -326 -73 -147 -71 -117 -71
-1119 0 -740 3 -907 15 -963 40 -191 176 -339 365 -398 89 -28 257 -27 378 1
219 52 427 208 512 386 52 107 60 165 60 428 l0 238 -42 -6 c-24 -3 -116 -8
-205 -12 l-161 -7 -4 -226 c-4 -252 -8 -267 -74 -341 -55 -61 -119 -90 -196
-90 -117 1 -195 62 -218 174 -7 36 -10 309 -8 872 l3 819 24 48 c91 184 352
184 443 -1 21 -44 23 -62 26 -249 l4 -203 92 0 c50 0 142 3 204 7 l114 6 -4
241 c-3 220 -6 247 -26 306 -69 194 -209 334 -397 396 -67 22 -102 27 -215 30
-94 3 -155 -1 -200 -11z"/>
<path d="M2136 2838 c-3 -7 -39 -218 -81 -468 -104 -617 -233 -1344 -345
-1944 -22 -115 -37 -212 -35 -215 8 -7 409 29 416 37 3 4 26 124 49 267 24
143 46 263 49 267 8 9 448 34 456 26 3 -2 26 -119 50 -258 25 -140 47 -255 48
-255 10 -5 417 22 423 27 4 4 -14 110 -39 235 -121 593 -270 1409 -382 2083
-14 85 -28 167 -31 183 l-6 27 -284 0 c-219 0 -286 -3 -288 -12z m307 -730
c10 -68 47 -305 83 -527 36 -221 62 -406 59 -410 -7 -6 -327 -20 -334 -14 -3
2 30 227 73 501 43 273 80 514 83 535 3 20 8 37 12 37 4 0 14 -55 24 -122z"/>
<path d="M3260 2655 l0 -195 235 0 235 0 0 -1056 0 -1057 92 7 c50 3 144 6
210 6 l118 0 0 653 c0 358 3 831 7 1050 l6 397 229 0 228 0 0 195 0 195 -680
0 -680 0 0 -195z"/>
<path d="M5018 1615 l-3 -1235 212 0 213 0 2 478 3 477 303 3 302 2 0 170 0
170 -27 1 c-16 1 -152 4 -303 8 l-275 6 0 380 0 380 383 3 382 2 0 195 0 195
-595 0 -595 0 -2 -1235z"/>
<path d="M6600 1606 l0 -1245 33 -5 c17 -3 167 -12 332 -21 165 -9 404 -23
530 -30 127 -8 245 -14 263 -15 l32 0 0 164 0 163 -117 7 c-65 3 -217 10 -338
16 -121 6 -240 12 -265 13 l-45 2 0 1095 0 1095 -212 3 -213 2 0 -1244z"/>
<path d="M8180 1555 l0 -1295 23 -1 c12 0 107 -8 210 -17 103 -10 190 -16 193
-13 2 2 4 593 4 1313 l0 1308 -215 0 -215 0 0 -1295z"/>
<path d="M9051 2798 c12 -29 65 -168 119 -308 54 -140 162 -419 240 -620 138
-352 142 -365 130 -400 -23 -65 -349 -835 -470 -1108 -39 -90 -69 -166 -67
-168 3 -3 83 -12 178 -19 96 -8 192 -18 215 -21 l41 -6 22 54 c13 29 47 116
76 193 29 77 81 212 115 300 34 88 76 199 93 247 18 49 34 88 37 88 3 0 17
-33 32 -73 14 -39 63 -171 108 -292 46 -121 113 -305 151 -409 38 -104 70
-191 72 -193 11 -11 457 -59 457 -49 0 3 -11 34 -25 68 -13 35 -54 144 -90
243 -74 200 -210 560 -346 913 l-90 233 47 117 c54 135 220 568 369 957 56
149 106 278 110 288 7 16 -6 17 -215 15 l-222 -3 -105 -300 c-58 -165 -126
-363 -152 -440 -26 -77 -52 -139 -57 -137 -5 2 -17 24 -26 50 -10 26 -73 198
-142 382 -68 184 -133 360 -144 390 l-20 55 -231 3 -231 2 21 -52z"/>
</g>
</svg>
